<?xml version="1.0" encoding="utf-8"?>
<!-- Generator: Adobe Illustrator 19.0.0, SVG Export Plug-In . SVG Version: 6.00 Build 0)  -->
<svg version="1.1" id="Layer_1" xmlns="http://www.w3.org/2000/svg" xmlns:xlink="http://www.w3.org/1999/xlink" x="0px" y="0px"
	 viewBox="0 0 240.3 55" style="enable-background:new 0 0 240.3 55;" xml:space="preserve">
<style type="text/css">
	.st0{fill:#720A54;}
	.st1{fill:#F7B7D3;}
	.st2{fill:#FFFFFF;}
</style>
<g id="XMLID_99_">
	<path id="XMLID_106_" class="st0" d="M109.2,26.6c0.4-0.5,0.8-1,1.3-1.4c1.1-1,2.4-1.9,3.7-2.7s2.6-1.5,3.9-2
		c0.1,0,0.3-0.1,0.5-0.2c0.3-0.1,0.6-0.3,0.9-0.4s0.6-0.3,1-0.4s0.5-0.2,0.7-0.3c0.2-0.1,0.5-0.2,0.7-0.3s0.4-0.3,0.6-0.5
		c0.1-0.2,0.2-0.4,0.3-0.7c0.1-0.3,0.3-0.6,0.4-0.9c0.1-0.3,0.2-0.5,0.3-0.8c0.1-0.2,0.1-0.3,0.1-0.4v-0.1c-0.6,0.3-1.2,0.7-1.9,1
		c-0.6,0.3-1.3,0.5-2,0.5c-0.2,0-0.4,0-0.5-0.1c-0.1,0-0.2-0.1-0.3-0.2s-0.2-0.2-0.2-0.3c-0.1-0.1-0.2-0.3-0.3-0.5h-0.1
		c-0.2,0-0.5,0.1-0.8,0.4c-0.3,0.2-0.6,0.5-0.9,0.8c-0.3,0.3-0.5,0.5-0.8,0.8c-0.2,0.2-0.4,0.4-0.4,0.4s0,0-0.1,0
		c0,0-0.1-0.1-0.2-0.2c-0.1-0.1-0.1-0.2-0.2-0.2c0,0,0,0,0-0.1s0-0.2,0.1-0.3c0.1-0.1,0.2-0.3,0.3-0.4s0.3-0.3,0.4-0.4
		c0.1-0.1,0.2-0.2,0.3-0.2c0.2-0.1,0.5-0.3,0.8-0.5s0.7-0.4,1.1-0.7c0.3-0.2,0.7-0.4,1-0.6s0.5-0.3,0.5-0.3c0.2-0.1,0.5-0.3,1-0.5
		s1-0.5,1.5-0.7c0.5-0.3,1-0.5,1.5-0.7s0.8-0.4,1-0.4h0.2c0.1,0,0.2,0,0.3,0.1c0.1,0,0.2,0.2,0.2,0.4c0,0.1,0,0.2,0,0.3
		c0,0.1-0.1,0.1-0.2,0.2c-0.9,0.3-1.8,0.7-2.6,1.3c-0.9,0.5-1.7,1.1-2.4,1.9h0.4c0.4,0,0.9-0.1,1.3-0.3s0.9-0.4,1.3-0.7
		c0.4-0.3,0.8-0.6,1.2-1s0.7-0.7,1-1.1c0,0,0,0,0.1,0h0.1c0.2,0,0.2,0.1,0.3,0.3s0.1,0.3,0.1,0.5c0,0.4-0.1,0.7-0.2,1.1
		c-0.2,0.4-0.3,0.8-0.5,1.1c-0.2,0.4-0.4,0.8-0.6,1.1s-0.4,0.7-0.5,1.1c0,0,0.1,0,0.2,0s0.2,0,0.3,0c0.2,0,0.5-0.1,0.7-0.1
		c0.2-0.1,0.5-0.1,0.7-0.1v0.2c-0.4,0.1-0.9,0.3-1.3,0.5c-0.5,0.2-0.9,0.5-1.3,0.7c-0.6,1.3-1.3,2.6-2.1,4s-1.6,2.7-2.5,4
		c-0.9,1.2-1.9,2.2-3.1,3.1c-1.1,0.8-2.3,1.2-3.6,1.2c-0.3,0-0.7-0.1-1.1-0.1c-0.4-0.1-0.8-0.2-1.2-0.5c-0.4-0.2-0.7-0.5-0.9-0.9
		s-0.3-0.9-0.3-1.4C108.6,27.8,108.8,27.1,109.2,26.6z M109.7,29.5c0.2,0.3,0.4,0.4,0.6,0.6c0.2,0.1,0.5,0.2,0.8,0.3
		c0.3,0,0.6,0.1,0.8,0.1c0.6,0,1.2-0.2,1.9-0.5s1.3-0.8,1.9-1.4s1.3-1.2,1.8-2c0.6-0.7,1.2-1.5,1.7-2.2c0.5-0.8,1-1.5,1.4-2.3
		s0.7-1.4,1-2V20c0-0.1,0-0.1,0-0.1h-0.5c0,0-0.2,0.1-0.4,0.2c-0.3,0.1-0.6,0.3-1,0.5s-0.8,0.4-1.2,0.5c-0.4,0.2-0.7,0.3-1,0.5
		c-0.1,0.1-0.2,0.1-0.4,0.2c-0.2,0.1-0.4,0.2-0.6,0.3c-0.2,0.1-0.4,0.3-0.6,0.4c-0.2,0.2-0.3,0.3-0.3,0.5l-0.2-0.2
		c0,0-0.1,0-0.2,0.1c-0.1,0.1-0.3,0.2-0.5,0.3s-0.3,0.2-0.4,0.2c-0.3,0.2-0.7,0.4-1.3,0.8c-0.5,0.4-1.1,0.8-1.6,1.3s-1,1-1.4,1.5
		s-0.6,1.1-0.6,1.6C109.4,28.9,109.5,29.2,109.7,29.5z M111.4,29.5c0,0.2,0,0.2-0.1,0.2s-0.2-0.1-0.2-0.2s0-0.2,0.2-0.2
		C111.3,29.4,111.4,29.4,111.4,29.5z"/>
	<path id="XMLID_142_" class="st0" d="M96.7,17.2l0.8-1.3c0.1,0,0.2,0,0.3-0.1c0.1-0.1,0.2-0.2,0.3-0.3c0.1-0.1,0.2-0.2,0.3-0.3
		c0.1-0.1,0.2-0.1,0.3,0c0.1-0.1,0.4-0.3,0.7-0.6s0.6-0.6,1-0.9s0.7-0.6,1-0.9s0.5-0.5,0.6-0.6c0.2-0.1,0.3-0.3,0.5-0.4
		s0.3-0.4,0.3-0.7c-0.3,0-0.7,0.1-1,0.3c-0.4,0.2-0.7,0.3-1,0.3c0,0-0.1,0-0.2-0.1s-0.1-0.2-0.1-0.3c0-0.1,0-0.2,0.1-0.3
		c0.1-0.1,0.2-0.2,0.3-0.3c0.1-0.1,0.2-0.1,0.3-0.2s0.1-0.1,0.2-0.1c0.3-0.1,0.7-0.2,1.1-0.2s0.8,0,1.2,0c0-0.1,0.1-0.2,0.2-0.3
		c0.1-0.1,0.2-0.3,0.3-0.4c0.1-0.1,0.2-0.3,0.3-0.4c0.1-0.1,0.2-0.2,0.2-0.3c0.1-0.1,0.3-0.3,0.4-0.5c0.2-0.2,0.4-0.3,0.5-0.3
		c0,0,0.1,0,0.2,0.1c0,0,0.1,0.1,0.1,0.2s0,0.2-0.1,0.4c-0.1,0.2-0.2,0.3-0.3,0.5s-0.2,0.3-0.3,0.4s-0.1,0.2-0.2,0.2V10
		c0,0,0.2,0,0.3,0s0.4,0,0.5,0.1c0.2,0,0.4,0,0.5,0.1s0.3,0,0.4,0c0.1,0,0.1,0,0.2,0s0.1,0,0.1,0.2c-0.3,0.1-0.5,0.2-0.8,0.3
		c-0.3,0-0.5,0.1-0.8,0.1s-0.5,0.1-0.8,0.1s-0.5,0.1-0.8,0.2c-0.1,0.1-0.2,0.3-0.4,0.5c-0.2,0.2-0.4,0.5-0.5,0.8
		c-0.2,0.3-0.4,0.6-0.5,0.9s-0.3,0.4-0.3,0.5c-0.1,0.1-0.2,0.2-0.3,0.4c-0.1,0.2-0.2,0.3-0.4,0.5c-0.1,0.2-0.2,0.4-0.3,0.6
		c-0.1,0.2-0.1,0.4-0.1,0.7h0.8l5.3-2.1h0.5c0,0,0,0.1-0.1,0.2c0,0.1-0.1,0.1-0.1,0.2c0,0-0.1,0.1-0.2,0.2c-0.1,0.1-0.2,0.1-0.3,0.2
		s-0.2,0.1-0.3,0.2s-0.2,0.1-0.2,0.1c-0.1,0.1-0.3,0.2-0.7,0.3c-0.3,0.1-0.7,0.3-1.1,0.5s-0.8,0.3-1.1,0.5c-0.4,0.2-0.6,0.3-0.8,0.3
		c-0.2,0.1-0.4,0.1-0.5,0.2s-0.3,0.1-0.4,0.1s-0.2,0.1-0.4,0.1c-0.1,0-0.3,0-0.4,0c-0.3,0-0.5-0.1-0.7-0.2s-0.3-0.4-0.3-0.9v-0.2
		c0-0.1,0-0.2,0.1-0.3c0-0.1,0.1-0.3,0.1-0.4c0-0.2,0.1-0.3,0.1-0.4s0.1-0.2,0.1-0.3l-2.3,1.8H98c-0.2,0.2-0.3,0.3-0.4,0.4
		s-0.2,0.2-0.4,0.4c-0.1,0.1-0.2,0.2-0.3,0.3c0,0,0,0-0.1,0.1c0,0.1,0,0.1-0.1,0.1c0,0,0,0.1-0.1,0.1l-0.1,0.1h-0.1
		c-0.1,0-0.2,0-0.2-0.1c-0.1-0.1-0.1-0.2-0.1-0.3C96.6,17.4,96.6,17.3,96.7,17.2z"/>
	<path id="XMLID_139_" class="st0" d="M104.6,17.7c0-0.1,0-0.1,0.1-0.1c0.4-0.3,0.8-0.7,1.3-1s0.9-0.7,1.4-1s0.9-0.7,1.4-1
		s0.9-0.6,1.4-0.9c0.1-0.2,0.3-0.4,0.5-0.5s0.4-0.2,0.6-0.2c0,0,0.1,0,0.2,0.1c0.1,0,0.2,0.1,0.3,0.2s0.2,0.1,0.2,0.2
		c0.1,0.1,0.1,0.1,0.1,0.1s0.2,0,0.3,0c0.2,0,0.3,0,0.5,0s0.3,0,0.5,0s0.3,0,0.3,0c0.5,0,1,0,1.5,0s1-0.1,1.5-0.4l0.1,0.2
		c0,0.1-0.1,0.3-0.4,0.4c-0.2,0.1-0.5,0.2-0.8,0.2c-0.3,0.1-0.6,0.1-1,0.2s-0.7,0.1-1,0.1s-0.6,0.1-0.8,0.2s-0.4,0.1-0.5,0.2
		c0,0,0,0-0.1,0.1c0,0.1-0.1,0.2-0.2,0.3c0,0.1-0.1,0.2-0.1,0.3c0,0.1-0.1,0.2-0.1,0.2c-0.2,0.3-0.4,0.6-0.6,0.9
		c-0.3,0.3-0.6,0.6-0.9,0.9c-0.3,0.3-0.6,0.5-0.9,0.7c-0.3,0.2-0.6,0.3-0.8,0.3c-0.1,0-0.3-0.1-0.4-0.2s-0.1-0.3-0.1-0.5v-0.1
		c0-0.1,0-0.1,0-0.1l0.6-1.8l0,0h-0.1c-0.1,0-0.2,0.1-0.3,0.2s-0.2,0.1-0.4,0.2c-0.1,0.1-0.2,0.1-0.4,0.2c-0.1,0.1-0.2,0.1-0.2,0.1
		s-0.1,0.1-0.3,0.2c-0.1,0.1-0.3,0.3-0.5,0.4s-0.4,0.3-0.6,0.4c-0.2,0.1-0.3,0.3-0.4,0.4c0,0-0.1,0.1-0.1,0.2s-0.1,0.2-0.2,0.3
		c-0.1,0.1-0.1,0.2-0.2,0.2c-0.1,0.1-0.1,0.1-0.2,0.1c-0.1,0-0.2-0.1-0.3-0.2c-0.1-0.1-0.1-0.2-0.1-0.4
		C104.6,17.9,104.6,17.8,104.6,17.7z M111,14.6c-0.3,0.1-0.6,0.3-0.8,0.5c-0.3,0.2-0.5,0.5-0.7,0.8s-0.3,0.7-0.3,1.2v0.2
		c0,0,0.1-0.1,0.2-0.1c0.1,0,0.1-0.1,0.2-0.1c0.1-0.1,0.2-0.2,0.4-0.3c0.2-0.1,0.4-0.3,0.5-0.4c0.2-0.2,0.4-0.3,0.5-0.4
		c0.2-0.1,0.3-0.2,0.4-0.3c0.2-0.1,0.3-0.3,0.3-0.5s0.1-0.4,0.1-0.7C111.5,14.4,111.3,14.5,111,14.6z"/>
	<path id="XMLID_136_" class="st0" d="M46.3,15.3c0.2-0.3,0.4-0.7,0.6-1s0.5-0.6,0.7-0.9s0.4-0.6,0.5-1h-0.2h-0.2c0,0-0.2,0-0.4,0.1
		c-0.2,0.1-0.3,0.1-0.4,0.2c-1.1,0.6-2.3,1.3-3.6,2c-1.3,0.7-2.4,1.5-3.5,2.3h-0.5c-0.3,0-0.5-0.1-0.6-0.1c-0.1-0.1-0.2-0.3-0.2-0.6
		c0-0.1,0-0.2,0-0.4l1.9-2.1c-0.1,0.1-0.3,0.2-0.7,0.4c-0.4,0.2-0.6,0.3-0.7,0.4c-0.2,0.1-0.5,0.4-0.9,0.7c-0.4,0.3-0.9,0.7-1.4,1
		c-0.5,0.4-1,0.7-1.4,1s-0.8,0.6-0.9,0.7c0,0-0.1,0.1-0.2,0.1c-0.1,0-0.1,0-0.2,0c-0.2,0-0.3,0-0.5-0.1c-0.1-0.1-0.2-0.2-0.2-0.5
		c0-0.2,0-0.4,0.1-0.4c0.1-0.1,0.2-0.2,0.4-0.4c0.9-0.6,1.7-1.2,2.6-1.8c0.9-0.6,1.8-1.1,2.7-1.7s1.8-1.1,2.7-1.7s1.7-1.3,2.5-2
		c0.6-0.5,1.2-1.2,1.8-2.1c0.7-0.9,1.3-1.8,2-2.7c0.7-0.9,1.5-1.6,2.2-2.3c0.8-0.7,1.6-1,2.5-1c0.3,0,0.6,0.1,0.8,0.1
		c0.2,0.1,0.3,0.3,0.3,0.7c0,0.1,0,0.2,0,0.3s0,0.2,0,0.3c-0.8,0.9-1.6,1.8-2.5,2.6s-1.7,1.5-2.6,2.3s-1.8,1.5-2.6,2.4
		c-0.9,0.8-1.7,1.7-2.4,2.7H44c0.3-0.2,0.7-0.4,1.1-0.6c0.4-0.3,0.9-0.5,1.4-0.7s1-0.4,1.5-0.6s1-0.2,1.4-0.2c0.3,0,0.4,0.1,0.5,0.2
		s0.1,0.4,0.1,0.7c0,0.3-0.1,0.7-0.4,1.1s-0.6,0.8-0.9,1.2c-0.3,0.4-0.6,0.8-0.9,1.3c-0.3,0.4-0.5,0.9-0.6,1.4h0.9
		c1,0,2-0.2,3.1-0.4c1.1-0.3,2.1-0.7,3.2-1.1s2.1-0.8,3.2-1.3c1-0.5,2-0.9,3-1.2c0,0,0.1-0.1,0.2-0.1c0.1-0.1,0.2-0.1,0.2-0.1
		s0.2,0,0.4,0c0.2,0,0.4,0,0.4,0c0,0.2-0.3,0.4-0.9,0.8s-1.3,0.8-2.2,1.2c-0.9,0.5-1.9,0.9-3,1.4s-2.2,0.9-3.3,1.4
		c-1.1,0.4-2,0.8-2.9,1c-0.9,0.3-1.6,0.4-2,0.4c-0.5,0-1-0.1-1.4-0.4s-0.6-0.8-0.6-1.4C46,16.1,46.1,15.7,46.3,15.3z M50.8,4.2
		c-0.6,0.6-1,1.2-1.2,1.8c1.2-0.8,2.2-1.8,3-3C51.9,3.2,51.3,3.6,50.8,4.2z"/>
	<path id="XMLID_133_" class="st0" d="M54.6,18.5c0-0.1,0.1-0.2,0.2-0.2c0.8-0.5,1.6-1,2.5-1.5s1.8-1,2.8-1.5c0.9-0.5,1.9-1,2.8-1.4
		c0.9-0.5,1.8-0.9,2.7-1.3c0.2-0.3,0.5-0.6,1-0.8c0.5-0.2,0.8-0.3,1.1-0.3c0.1,0,0.2,0,0.4,0.1c0.2,0.1,0.3,0.1,0.5,0.2
		s0.3,0.2,0.5,0.3c0.1,0.1,0.2,0.2,0.2,0.2c0.1,0,0.3,0,0.6,0c0.3,0,0.6,0,0.9,0s0.6,0,0.9,0s0.5,0,0.6,0c1,0,2,0,2.9-0.1
		c0.9,0,1.9-0.2,2.9-0.6l0.2,0.3c0,0.2-0.3,0.4-0.7,0.5c-0.4,0.1-0.9,0.3-1.5,0.4s-1.2,0.2-1.9,0.3c-0.7,0.1-1.4,0.2-2,0.2
		c-0.6,0.1-1.2,0.1-1.6,0.2c-0.5,0.1-0.8,0.2-0.9,0.3c0,0-0.1,0.1-0.2,0.2s-0.2,0.3-0.3,0.4s-0.2,0.3-0.3,0.4
		c-0.1,0.1-0.1,0.2-0.2,0.3c-0.3,0.4-0.7,0.9-1.2,1.3c-0.5,0.5-1.1,0.9-1.7,1.3s-1.2,0.7-1.8,1c-0.6,0.3-1.1,0.4-1.6,0.4
		c-0.3,0-0.5-0.1-0.7-0.2c-0.2-0.2-0.3-0.4-0.3-0.8c0-0.1,0-0.1,0-0.2s0-0.1,0-0.2l1.2-2.7h0.2h-0.1c-0.1,0.1-0.3,0.1-0.6,0.2
		c-0.2,0.1-0.5,0.2-0.7,0.3c-0.2,0.1-0.5,0.2-0.7,0.3c-0.2,0.1-0.3,0.2-0.4,0.2c-0.1,0.1-0.3,0.2-0.6,0.4c-0.3,0.2-0.6,0.4-1,0.6
		s-0.7,0.4-1.1,0.7c-0.4,0.2-0.6,0.4-0.8,0.5c0,0-0.1,0.1-0.3,0.2c-0.1,0.1-0.3,0.3-0.4,0.4s-0.3,0.2-0.4,0.3
		c-0.1,0.1-0.2,0.1-0.3,0.1c-0.2,0-0.4-0.1-0.5-0.3c-0.1-0.2-0.2-0.4-0.2-0.5C54.6,18.7,54.6,18.6,54.6,18.5z M67.1,14
		c-0.6,0.2-1.1,0.4-1.7,0.7c-0.5,0.3-1,0.7-1.4,1.2s-0.6,1-0.6,1.7v0.3c0,0,0.2-0.1,0.4-0.1c0.2-0.1,0.3-0.1,0.4-0.1
		c0.1-0.1,0.4-0.2,0.7-0.4c0.3-0.2,0.7-0.4,1.1-0.7c0.4-0.2,0.7-0.4,1.1-0.7c0.3-0.2,0.6-0.3,0.7-0.4c0.3-0.2,0.5-0.4,0.6-0.7
		s0.2-0.5,0.2-0.9C68.2,13.8,67.7,13.8,67.1,14z"/>
	<path id="XMLID_132_" class="st0" d="M69.5,16.5c0.7-0.5,1.5-1,2.3-1.5s1.6-0.8,2.5-1.2s1.6-0.6,2.2-0.9c0.2-0.1,0.5-0.2,0.9-0.4
		c0.4-0.2,0.8-0.3,1.2-0.4c0.4-0.2,0.8-0.3,1.2-0.4c0.4-0.1,0.6-0.2,0.7-0.2c0,0,0.2,0,0.4,0c0.2,0,0.4,0,0.5,0s0.2,0,0.5,0
		c0.2,0,0.4,0,0.5,0c0,0,0.1,0.1,0.1,0.2s0.1,0.1,0.1,0.2c0,0,0,0.1,0,0.2v0.1v0.1c-0.2,0.3-0.6,0.5-0.9,0.9c-0.4,0.3-0.7,0.7-1,1.1
		s-0.6,0.8-0.9,1.2s-0.4,0.9-0.4,1.4c0.4,0,0.9-0.1,1.5-0.2c0.6-0.2,1.1-0.3,1.7-0.5s1.1-0.4,1.6-0.7c0.5-0.3,1-0.5,1.4-0.7
		c0.1,0,0.2-0.1,0.5-0.2s0.5-0.3,0.7-0.4c0.2-0.2,0.5-0.3,0.7-0.4s0.4-0.2,0.5-0.3h0.6c0,0.3,0,0.6-0.1,0.9s-0.2,0.5-0.2,0.7
		c-0.1,0.2-0.2,0.5-0.2,0.7C88,16.1,88,16.3,88,16.6c0.4,0,0.9-0.1,1.5-0.2c0.6-0.2,1.1-0.4,1.7-0.7c0.5-0.3,1-0.7,1.3-1.2
		c0.4-0.5,0.5-1,0.5-1.7c0-0.3-0.1-0.7-0.4-0.9c-0.2-0.3-0.4-0.5-0.4-0.8s0.1-0.4,0.2-0.4c0.1-0.1,0.3-0.1,0.4-0.1
		c0.3,0,0.6,0.1,0.9,0.3c0.3,0.2,0.6,0.3,1,0.3c0.2,0,0.5,0,0.9,0s0.9,0,1.3,0s0.9,0,1.4,0c0.4,0,0.7,0,0.9,0l0.5,0.3
		c-0.8,0.3-1.7,0.6-2.6,0.8c-0.9,0.2-1.8,0.3-2.7,0.3c0,0-0.1,0-0.1,0.1s-0.1,0.1-0.1,0.2c-0.3,0.7-0.7,1.3-1.2,2s-1,1.2-1.5,1.8
		c-0.6,0.5-1.2,0.9-1.8,1.3c-0.7,0.3-1.4,0.5-2.1,0.5c-0.4,0-0.7-0.1-0.9-0.4c-0.1-0.3-0.2-0.6-0.2-1.1c0-0.3,0-0.6,0.1-0.9
		s0.1-0.5,0.1-0.8c0,0-0.1,0-0.1-0.1l-0.1-0.1c-0.3,0.2-0.9,0.5-1.6,0.9s-1.5,0.8-2.3,1.2c-0.8,0.4-1.6,0.7-2.3,1
		c-0.7,0.3-1.2,0.4-1.5,0.4c-0.1,0-0.2,0-0.4-0.1c-0.1-0.1-0.3-0.2-0.4-0.2c-0.1-0.1-0.2-0.2-0.3-0.3c-0.1-0.1-0.1-0.3-0.1-0.4
		c0-0.3,0.2-0.7,0.4-1.1c0.2-0.4,0.5-0.8,0.8-1.2c0.3-0.4,0.5-0.7,0.8-1s0.5-0.5,0.6-0.7h-0.7c0,0-0.3,0.1-0.8,0.3
		c-0.5,0.2-1.1,0.4-1.8,0.7c-0.7,0.3-1.4,0.6-2.1,0.9s-1.3,0.5-1.7,0.8c-0.3,0.2-0.7,0.4-1.1,0.6s-0.8,0.5-1.3,0.8
		c-0.4,0.3-0.9,0.6-1.2,0.8c-0.4,0.3-0.8,0.5-1.1,0.7l-0.6-1C68.2,17.7,68.7,17,69.5,16.5z"/>
	<path id="XMLID_130_" class="st1" d="M19.1,49.7V55H11v-5.5c-2.1-0.6-4.3-1.7-6-3.2c-3.3-2.9-5-7-5-11.8h9c0,2.2,0.7,3.8,2,5
		c1.2,1,3,1.7,4.8,1.7c0.7,0,6.5,0.2,6.5-5.9c0-2.1-0.9-2.5-7-4c-5.6-1.5-14-3.7-14.5-13l-0.1-0.2C0.7,10.5,5.4,5.7,11,4V0h8.1v3.5
		c2.6,0.6,4.6,1.7,6.4,3.5c2,2,4.6,5.5,4.6,11.5h-9c0-2.1-0.6-4-1.7-5.1c-1-0.9-2.3-1.4-3.8-1.4c-2,0-5.7,1.2-5.8,5.6
		c0.2,2.2,1.6,3.1,7.8,4.7c5.5,1.4,13.7,3.6,13.7,12.7C31.1,43.4,25.5,48.3,19.1,49.7z"/>
	<path id="XMLID_54_" class="st2" d="M50.4,20.8v4.5h-6.9v23.6h-4.7V25.3H32v-4.5H50.4z"/>
	<path id="XMLID_56_" class="st2" d="M64.2,49.2c-1.5,0-2.9-0.3-4.3-0.8c-1.3-0.5-2.5-1.2-3.5-2.1s-1.7-2-2.3-3.3
		c-0.6-1.3-0.8-2.7-0.8-4.2v-18H58v18c0,0.8,0.2,1.6,0.5,2.3c0.3,0.7,0.8,1.3,1.3,1.9c0.6,0.5,1.2,1,1.9,1.3
		c0.7,0.3,1.6,0.5,2.4,0.5c0.9,0,1.7-0.2,2.4-0.5c0.8-0.3,1.4-0.8,2-1.3s1-1.2,1.3-1.9c0.3-0.7,0.5-1.5,0.5-2.3v-18H75v18.1
		c0,1.5-0.3,2.9-0.8,4.2c-0.6,1.3-1.3,2.4-2.3,3.3c-1,0.9-2.2,1.6-3.5,2.1C67.1,49,65.7,49.2,64.2,49.2z"/>
	<path id="XMLID_58_" class="st2" d="M79.7,48.9V20.8h17.1v4.4H84.4v7.9h10.8v4.4H84.4V49h-4.7V48.9z"/>
	<path id="XMLID_60_" class="st2" d="M99.6,48.9V20.8h17.1v4.4h-12.4v7.9h10.8v4.4h-10.8V49h-4.7V48.9z"/>
	<path id="XMLID_62_" class="st2" d="M146.8,46.8c-0.3,0.2-0.7,0.4-1.3,0.7c-0.6,0.3-1.2,0.5-2,0.8c-0.8,0.2-1.6,0.5-2.6,0.6
		c-1,0.2-2,0.3-3,0.3c-2.2,0-4.2-0.4-5.9-1.1c-1.7-0.8-3.2-1.8-4.4-3.1c-1.2-1.3-2.1-2.8-2.8-4.5c-0.6-1.7-1-3.5-1-5.4
		c0-2.1,0.4-4.1,1.2-5.8c0.8-1.8,1.8-3.3,3.1-4.6s2.9-2.3,4.6-3c1.8-0.7,3.6-1.1,5.6-1.1c0.8,0,1.5,0.1,2.3,0.2s1.5,0.3,2.2,0.4
		c0.7,0.2,1.3,0.4,1.8,0.6c0.5,0.2,0.9,0.5,1.1,0.7c-0.2,0.4-0.4,0.7-0.5,0.9s-0.3,0.5-0.4,0.7c-0.1,0.2-0.3,0.5-0.5,0.8
		s-0.4,0.7-0.7,1.3c-0.3-0.2-0.7-0.4-1.1-0.5c-0.4-0.2-0.9-0.3-1.4-0.4c-0.5-0.1-1-0.2-1.4-0.2c-0.5-0.1-0.9-0.1-1.3-0.1
		c-1.4,0-2.8,0.3-4,0.8s-2.3,1.3-3.2,2.1c-0.9,0.9-1.6,1.9-2.1,3.1c-0.5,1.2-0.8,2.4-0.8,3.7c0,1.2,0.2,2.4,0.7,3.6
		c0.5,1.2,1.1,2.2,2,3.1c0.9,0.9,1.9,1.6,3.1,2.2c1.2,0.6,2.5,0.8,3.9,0.8c0.8,0,1.6-0.1,2.4-0.3c0.8-0.2,1.5-0.4,2-0.6
		c0.6-0.2,1.1-0.4,1.4-0.6c0.4-0.2,0.6-0.3,0.6-0.4L146.8,46.8z"/>
	<path id="XMLID_64_" class="st2" d="M148.7,48.9V20.8h4.7v11.7h13.4V20.8h4.8c0,0.3,0,1.2,0,2.6c0,1.4,0,3.1,0,5.1s0,4.1,0,6.4
		c0,2.2,0,4.4,0,6.4s0,3.7,0,5.1s0,2.3,0,2.6h-4.8V37h-13.4v11.9H148.7z"/>
	<path id="XMLID_66_" class="st2" d="M176.4,48.9V20.8h18.7v4.3h-14v7.6h12.4v4.4h-12.4v7.4h14.5v4.4H176.4z"/>
	<path id="XMLID_68_" class="st2" d="M215.9,48.9c-0.1-0.2-0.2-0.5-0.4-1s-0.4-1-0.7-1.7c-0.3-0.7-0.6-1.4-0.9-2.2
		c-0.3-0.8-0.7-1.7-1-2.5h-9.7l-3.1,7.4h-4.7c0.1-0.2,0.3-0.8,0.7-1.7s0.9-2,1.4-3.4c0.6-1.3,1.2-2.9,1.9-4.5
		c0.7-1.7,1.4-3.3,2.2-5.1c0.7-1.7,1.5-3.4,2.2-5.1c0.7-1.7,1.3-3.2,1.9-4.5c0.6-1.3,1.1-2.5,1.4-3.4c0.4-0.9,0.6-1.5,0.7-1.7
		c0.1,0.2,0.4,0.8,0.8,1.7c0.4,0.9,0.9,2,1.5,3.4c0.6,1.3,1.2,2.9,1.9,4.5c0.7,1.7,1.4,3.3,2.2,5.1c0.7,1.7,1.5,3.4,2.2,5.1
		s1.3,3.2,1.9,4.5c0.6,1.3,1.1,2.5,1.4,3.4c0.4,0.9,0.6,1.5,0.7,1.7H215.9z M204.8,37.5h6.4l-2.8-6.7c0,0-0.1-0.2-0.2-0.5
		c-0.1-0.3-0.2-0.6-0.2-0.9c-0.1,0.3-0.1,0.5-0.2,0.9c-0.1,0.3-0.2,0.5-0.2,0.5L204.8,37.5z"/>
	<path id="XMLID_71_" class="st2" d="M222.2,48.9V20.8h7.9c1.5,0,2.9,0.2,4.2,0.6c1.3,0.4,2.4,1,3.2,1.8c0.9,0.8,1.6,1.7,2.1,2.9
		c0.5,1.1,0.7,2.4,0.7,3.8c0,1.1-0.2,2.3-0.5,3.4s-0.9,2.1-1.6,3c-0.8,0.9-1.7,1.6-2.9,2.2c-1.2,0.6-2.7,0.8-4.5,0.8h-3.9V49h-4.7
		V48.9z M226.9,34.8h3.8c1,0,1.8-0.2,2.4-0.5c0.6-0.3,1.2-0.8,1.5-1.3c0.4-0.5,0.7-1,0.8-1.6c0.2-0.6,0.2-1,0.2-1.5
		c0-0.4-0.1-0.9-0.2-1.4c-0.1-0.6-0.4-1.1-0.8-1.6s-0.9-0.9-1.5-1.2s-1.5-0.5-2.5-0.5h-3.8L226.9,34.8L226.9,34.8z"/>
	<path id="XMLID_103_" class="st0" d="M125,17.1c0,0-0.2,0-0.3,0.1s-0.3,0.1-0.3,0.1s-0.1-0.1-0.2-0.2c-0.1-0.1-0.1-0.2-0.1-0.2
		c0.1-0.2,0.2-0.3,0.3-0.4s0.3-0.2,0.4-0.2c0.1-0.1,0.3-0.1,0.4-0.2c0.1-0.1,0.3-0.2,0.4-0.3c0.4-0.4,0.8-0.9,1.2-1.3
		s0.8-0.8,1.3-1.1c0.5-0.3,0.9-0.6,1.4-0.8c0.5-0.2,1-0.3,1.6-0.3c0.2,0,0.4,0,0.5,0.1s0.1,0.2,0.1,0.5c0,0.2-0.1,0.4-0.3,0.7
		c-0.2,0.2-0.4,0.4-0.6,0.5c-0.2,0.2-0.5,0.3-0.7,0.4s-0.4,0.2-0.5,0.3c-0.1,0.1-0.2,0.1-0.5,0.3c-0.3,0.1-0.6,0.3-0.9,0.4
		c-0.3,0.2-0.6,0.3-0.9,0.5c-0.3,0.2-0.4,0.2-0.5,0.3c-0.2,0.1-0.3,0.1-0.3,0.2c0,0-0.1,0.1-0.1,0.3c0,0.2,0,0.3,0.2,0.3
		c0.1,0.1,0.2,0.1,0.4,0.1s0.3,0,0.4,0s0.2,0,0.3,0c1.1,0,2.2-0.2,3.3-0.5s2.2-0.7,3.2-1c0,0,0.1,0,0.2-0.1c0.1-0.1,0.2-0.1,0.2-0.1
		s0,0,0.1,0.1c0,0.1,0.1,0.1,0.1,0.1c-0.4,0.4-1,0.8-1.6,1.1c-0.7,0.3-1.4,0.6-2.2,0.8c-0.8,0.2-1.5,0.4-2.2,0.5s-1.3,0.2-1.8,0.2
		c-0.2,0-0.4-0.1-0.6-0.2c-0.2-0.1-0.4-0.2-0.5-0.3c-0.2-0.1-0.3-0.2-0.5-0.3c-0.1-0.1-0.2-0.2-0.3-0.2L125,17.1L125,17.1z
		 M129.7,13.3c-0.3,0.1-0.6,0.2-0.9,0.4c-0.3,0.2-0.6,0.4-0.8,0.6s-0.5,0.5-0.6,0.8h0.1c0.2,0,0.4-0.1,0.7-0.2
		c0.3-0.2,0.6-0.3,0.9-0.5c0.3-0.2,0.6-0.4,1-0.6c0.3-0.2,0.5-0.4,0.7-0.5c0,0-0.1,0-0.2,0c-0.1,0-0.1,0-0.1,0
		C130.3,13.2,130,13.2,129.7,13.3z"/>
	<path id="XMLID_102_" class="st0" d="M131,17.7l1.1-1.4c0.1,0.1,0.3,0,0.4-0.1c0.2-0.1,0.3-0.2,0.4-0.3s0.3-0.3,0.4-0.4
		s0.2-0.1,0.4-0.1c0.2-0.1,0.5-0.3,0.9-0.7c0.4-0.3,0.8-0.7,1.3-1s0.9-0.7,1.3-1c0.4-0.3,0.7-0.5,0.8-0.7c0.2-0.2,0.5-0.3,0.7-0.5
		s0.4-0.4,0.4-0.7c-0.4,0-0.9,0.1-1.4,0.3c-0.5,0.2-0.9,0.3-1.3,0.3c-0.1,0-0.2-0.1-0.3-0.2s-0.2-0.2-0.2-0.3c0-0.2,0-0.3,0.2-0.4
		c0.1-0.1,0.2-0.2,0.4-0.3c0.1-0.1,0.3-0.2,0.4-0.2c0.1-0.1,0.2-0.1,0.2-0.1c0.4-0.1,0.9-0.2,1.5-0.2s1.1,0,1.5,0
		c0.1-0.1,0.2-0.2,0.3-0.3c0.1-0.2,0.3-0.3,0.4-0.5c0.2-0.2,0.3-0.3,0.4-0.5c0.2-0.2,0.2-0.3,0.3-0.3c0.2-0.2,0.3-0.4,0.6-0.5
		c0.2-0.2,0.5-0.3,0.7-0.3c0.1,0,0.2,0,0.2,0.1c0.1,0.1,0.1,0.1,0.1,0.3s0,0.3-0.2,0.5c-0.1,0.2-0.2,0.4-0.4,0.6
		c-0.1,0.2-0.3,0.3-0.4,0.5c-0.1,0.1-0.2,0.2-0.2,0.2v0.2c0.1,0,0.2,0,0.5,0c0.2,0,0.5,0.1,0.7,0.1c0.3,0,0.5,0.1,0.7,0.1
		s0.4,0,0.5,0s0.2,0,0.3,0s0.2,0.1,0.2,0.2c-0.3,0.2-0.7,0.3-1,0.3c-0.3,0.1-0.7,0.1-1,0.1s-0.7,0.1-1.1,0.1c-0.4,0-0.7,0.1-1.1,0.3
		c-0.1,0.1-0.3,0.3-0.5,0.6c-0.2,0.3-0.5,0.6-0.7,0.9c-0.3,0.3-0.5,0.7-0.7,0.9s-0.4,0.5-0.5,0.6s-0.2,0.3-0.4,0.5s-0.3,0.4-0.5,0.6
		s-0.3,0.4-0.4,0.7c-0.1,0.2-0.2,0.5-0.2,0.7h1.1l7.1-2.3h0.6c0,0.1-0.1,0.1-0.2,0.2c-0.1,0.1-0.1,0.2-0.2,0.2
		c-0.1,0.1-0.2,0.1-0.3,0.2s-0.3,0.2-0.4,0.3c-0.2,0.1-0.3,0.2-0.4,0.2c-0.1,0.1-0.2,0.1-0.3,0.2c-0.2,0.1-0.5,0.2-0.9,0.4
		c-0.5,0.2-0.9,0.4-1.5,0.5c-0.5,0.2-1,0.4-1.5,0.6s-0.8,0.3-1,0.4s-0.5,0.1-0.6,0.2c-0.2,0.1-0.3,0.1-0.5,0.2
		c-0.2,0-0.3,0.1-0.5,0.1s-0.3,0-0.5,0c-0.4,0-0.6-0.1-0.9-0.2s-0.3-0.5-0.3-1v-0.3c0-0.1,0.1-0.2,0.1-0.3c0.1-0.2,0.1-0.3,0.2-0.5
		c0.1-0.2,0.2-0.3,0.2-0.5c0.1-0.2,0.1-0.3,0.2-0.3l-2.9,2.1h-0.2c-0.2,0.2-0.4,0.4-0.6,0.5s-0.3,0.3-0.5,0.4s-0.3,0.3-0.4,0.3
		c0,0,0,0-0.1,0.1c0,0.1-0.1,0.1-0.1,0.1s-0.1,0.1-0.2,0.1c-0.1,0.1-0.1,0.1-0.2,0.1h-0.1c-0.1,0-0.2,0-0.3-0.1s-0.1-0.2-0.1-0.3
		C130.9,17.9,130.9,17.8,131,17.7z"/>
</g>
</svg>
