<?xml version="1.0" encoding="utf-8"?>
<!-- Generator: Adobe Illustrator 19.0.0, SVG Export Plug-In . SVG Version: 6.00 Build 0)  -->
<svg version="1.1" id="Layer_1" xmlns="http://www.w3.org/2000/svg" xmlns:xlink="http://www.w3.org/1999/xlink" x="0px" y="0px"
	 viewBox="0 0 602.5 140" style="enable-background:new 0 0 602.5 140;" xml:space="preserve">
<style type="text/css">
	.st0{fill:#4C4C4C;}
	.st1{fill:#020202;}
</style>
<path class="st0" d="M249.1,44.8l2-3c0.2,0.1,0.5,0.1,0.8-0.2c0.3-0.2,0.5-0.5,0.8-0.7c0.2-0.3,0.5-0.6,0.7-0.8
	c0.2-0.2,0.5-0.2,0.6-0.1c0.3-0.2,0.9-0.7,1.6-1.4c0.7-0.7,1.5-1.4,2.4-2.1c0.9-0.7,1.6-1.5,2.4-2.1c0.7-0.7,1.2-1.2,1.5-1.4
	c0.4-0.3,0.8-0.7,1.3-1.1c0.5-0.3,0.7-0.9,0.7-1.6c-0.8,0-1.6,0.2-2.5,0.7c-0.9,0.4-1.6,0.7-2.4,0.7c-0.1,0-0.3-0.1-0.5-0.3
	c-0.2-0.2-0.3-0.5-0.3-0.7c0-0.3,0.1-0.6,0.3-0.8c0.2-0.2,0.4-0.4,0.6-0.7c0.2-0.2,0.5-0.3,0.7-0.4c0.2-0.1,0.3-0.2,0.5-0.2
	c0.7-0.2,1.6-0.4,2.7-0.5s2,0,2.8,0.1c0.1-0.2,0.3-0.4,0.5-0.7c0.2-0.3,0.5-0.7,0.8-1.1c0.3-0.3,0.5-0.7,0.8-1.1s0.5-0.6,0.5-0.7
	c0.3-0.3,0.6-0.7,1.1-1.2c0.5-0.4,0.9-0.7,1.2-0.7c0.1,0,0.3,0.1,0.4,0.2c0.1,0.1,0.2,0.3,0.2,0.6c0,0.2-0.1,0.6-0.3,1
	c-0.2,0.4-0.4,0.8-0.6,1.2s-0.5,0.7-0.7,1c-0.2,0.3-0.3,0.5-0.4,0.5v0.5c0.1,0,0.4,0,0.8,0.1s0.9,0.1,1.3,0.2
	c0.5,0.1,0.9,0.1,1.3,0.2c0.4,0.1,0.7,0.1,0.9,0.1c0.2,0,0.3,0,0.5,0c0.2,0,0.3,0.1,0.3,0.4c-0.6,0.3-1.2,0.6-1.9,0.7
	c-0.6,0.1-1.2,0.2-1.9,0.2c-0.6,0.1-1.2,0.2-1.9,0.2c-0.6,0.1-1.3,0.2-1.9,0.6c-0.2,0.2-0.5,0.7-0.9,1.3c-0.4,0.6-0.9,1.2-1.3,2
	c-0.5,0.7-0.9,1.4-1.3,2.1s-0.7,1.1-0.8,1.3c-0.2,0.2-0.4,0.6-0.7,1s-0.6,0.8-0.9,1.3c-0.3,0.5-0.5,1-0.7,1.5
	c-0.2,0.5-0.3,1.1-0.3,1.6h1.9l12.8-4.9h1.1c-0.1,0.1-0.1,0.2-0.3,0.5c-0.1,0.2-0.2,0.3-0.3,0.4c-0.1,0.1-0.3,0.2-0.5,0.4
	s-0.5,0.3-0.8,0.6c-0.3,0.2-0.6,0.3-0.8,0.5c-0.2,0.2-0.4,0.2-0.5,0.3c-0.3,0.2-0.8,0.4-1.6,0.8c-0.8,0.3-1.6,0.7-2.6,1.2
	c-0.9,0.4-1.8,0.8-2.7,1.2c-0.9,0.4-1.4,0.7-1.8,0.8c-0.5,0.2-0.9,0.3-1.1,0.4c-0.3,0.2-0.6,0.2-0.9,0.3c-0.3,0.1-0.6,0.2-0.9,0.2
	c-0.3,0-0.6,0-1,0c-0.6,0-1.2-0.2-1.6-0.5c-0.4-0.3-0.6-1.1-0.6-2.2v-0.5c0.1-0.2,0.1-0.4,0.2-0.7s0.2-0.7,0.3-1.1
	c0.1-0.4,0.3-0.7,0.3-1.1c0.1-0.3,0.2-0.6,0.3-0.7l-5.4,4.4h-0.3c-0.4,0.4-0.7,0.7-1.1,1.1c-0.3,0.3-0.6,0.6-0.9,0.9
	c-0.3,0.3-0.5,0.6-0.7,0.7c-0.1,0-0.1,0.1-0.2,0.2c-0.1,0.2-0.1,0.2-0.2,0.2c-0.1,0.1-0.1,0.2-0.3,0.2c-0.1,0.1-0.2,0.2-0.3,0.2
	h-0.2c-0.2,0-0.4-0.1-0.5-0.2c-0.2-0.2-0.2-0.4-0.2-0.7C249.1,45.1,249.1,45.1,249.1,44.8z"/>
<path class="st0" d="M268.1,46c0-0.2,0.1-0.2,0.3-0.3c1-0.8,2-1.6,3.1-2.5c1.1-0.8,2.2-1.6,3.4-2.5c1.1-0.8,2.3-1.6,3.5-2.4
	c1.1-0.7,2.3-1.5,3.3-2.1c0.2-0.6,0.6-1,1.2-1.3c0.6-0.3,1-0.4,1.4-0.4c0.1,0,0.3,0.1,0.5,0.2c0.2,0.1,0.4,0.2,0.6,0.4
	c0.2,0.2,0.4,0.3,0.6,0.5c0.2,0.2,0.3,0.2,0.3,0.3c0.1,0,0.4,0,0.7,0c0.4,0,0.8,0,1.2,0s0.8,0,1.1,0c0.4,0,0.6,0,0.8,0
	c1.3,0,2.5,0,3.6-0.1c1.1-0.1,2.3-0.3,3.6-1l0.3,0.5c-0.1,0.3-0.3,0.7-0.9,0.9s-1.1,0.4-1.9,0.6s-1.5,0.3-2.4,0.4
	c-0.9,0.2-1.6,0.2-2.4,0.3c-0.8,0.1-1.4,0.2-2,0.4c-0.6,0.2-1,0.3-1.1,0.5c-0.1,0-0.1,0.1-0.2,0.3c-0.1,0.2-0.2,0.4-0.4,0.7
	c-0.1,0.2-0.3,0.5-0.3,0.7c-0.1,0.2-0.2,0.4-0.2,0.4c-0.4,0.7-0.9,1.4-1.5,2.2s-1.4,1.5-2.1,2.1c-0.7,0.7-1.5,1.2-2.2,1.6
	s-1.4,0.7-2,0.7c-0.3,0-0.6-0.2-0.9-0.4s-0.3-0.7-0.3-1.2c0-0.1,0-0.2,0-0.3c0-0.2,0-0.2,0-0.2l1.4-4.4h-0.1h-0.2
	c-0.2,0.1-0.4,0.2-0.7,0.4s-0.6,0.3-0.9,0.5c-0.3,0.2-0.6,0.3-0.9,0.5c-0.3,0.2-0.4,0.2-0.5,0.3c-0.1,0.1-0.3,0.3-0.7,0.6
	c-0.3,0.3-0.8,0.7-1.2,1c-0.5,0.3-0.9,0.7-1.4,1.1c-0.5,0.3-0.8,0.7-1,0.9c-0.1,0.1-0.2,0.2-0.3,0.4c-0.2,0.2-0.3,0.4-0.5,0.7
	c-0.2,0.2-0.3,0.4-0.5,0.6c-0.2,0.2-0.3,0.2-0.4,0.2c-0.2,0-0.5-0.2-0.6-0.4c-0.2-0.3-0.3-0.6-0.3-0.9
	C268.1,46.4,268.1,46.2,268.1,46z M283.5,38.5c-0.7,0.2-1.4,0.7-2,1.2c-0.7,0.5-1.2,1.2-1.7,2s-0.7,1.7-0.7,2.8v0.5
	c0.1-0.1,0.2-0.2,0.5-0.2s0.3-0.2,0.5-0.2c0.2-0.2,0.5-0.4,0.9-0.7s0.9-0.7,1.3-1.1c0.5-0.4,0.9-0.7,1.3-1.1
	c0.4-0.3,0.7-0.6,0.9-0.7c0.4-0.3,0.6-0.7,0.8-1.2c0.2-0.4,0.2-0.9,0.2-1.6C284.8,38.1,284.2,38.2,283.5,38.5z"/>
<path class="st0" d="M128.1,40.3c0.5-0.8,1-1.6,1.5-2.3c0.6-0.8,1.1-1.4,1.7-2.1s0.9-1.5,1.2-2.4h-0.6h-0.5c-0.1,0-0.4,0.1-0.9,0.3
	c-0.4,0.1-0.7,0.3-0.9,0.4c-2.7,1.4-5.6,3-8.6,4.7c-3,1.7-5.8,3.6-8.4,5.5h-1.1c-0.6,0-1.1-0.1-1.4-0.3c-0.3-0.2-0.4-0.7-0.4-1.4
	c0-0.1,0.1-0.4,0.1-0.9l4.6-5c-0.3,0.1-0.8,0.5-1.7,0.9c-0.9,0.5-1.5,0.8-1.7,0.9c-0.4,0.3-1.1,0.9-2.2,1.6
	c-1.1,0.8-2.2,1.6-3.4,2.5c-1.2,0.9-2.3,1.7-3.4,2.5c-1.1,0.8-1.8,1.4-2.2,1.6c-0.1,0.1-0.3,0.1-0.5,0.1c-0.2,0-0.4,0-0.4,0
	c-0.5,0-0.8-0.1-1.1-0.3c-0.3-0.1-0.4-0.5-0.4-1.1c0-0.5,0.1-0.9,0.2-1.1c0.2-0.2,0.5-0.5,0.9-0.9c2-1.5,4.2-2.9,6.3-4.3
	c2.2-1.4,4.3-2.8,6.5-4.1c2.2-1.4,4.3-2.8,6.4-4.1c2.1-1.4,4.1-3,6-4.7c1.3-1.2,2.8-2.9,4.3-5.1c1.6-2.2,3.2-4.3,4.9-6.5
	c1.7-2.1,3.5-4,5.4-5.5s3.9-2.3,6-2.3c0.8,0,1.3,0.1,1.9,0.3c0.5,0.2,0.8,0.8,0.8,1.6c0,0.1,0,0.4-0.1,0.7c-0.1,0.3-0.1,0.5-0.1,0.7
	c-1.9,2.3-3.9,4.3-5.9,6.2c-2,1.9-4.2,3.7-6.3,5.5c-2.1,1.8-4.2,3.7-6.3,5.6c-2,1.9-4,4.1-5.8,6.5h0.6c0.8-0.4,1.6-0.9,2.6-1.5
	c1.1-0.6,2.2-1.2,3.3-1.8c1.2-0.6,2.4-1.1,3.6-1.4c1.2-0.4,2.4-0.6,3.4-0.6c0.6,0,1.1,0.2,1.2,0.5c0.2,0.3,0.2,0.9,0.2,1.8
	c0,0.8-0.3,1.8-0.9,2.7s-1.3,1.9-2.2,2.9c-0.8,1-1.5,2-2.2,3.1c-0.7,1.1-1.2,2.2-1.3,3.3h2.2c2.3,0,4.8-0.4,7.4-1.1
	c2.6-0.7,5.1-1.6,7.7-2.6c2.6-1,5.1-2,7.6-3.1c2.5-1.1,4.9-2.1,7.3-2.9c0.1,0,0.2-0.1,0.5-0.3c0.3-0.3,0.5-0.3,0.5-0.3
	c0.1,0,0.5,0,1-0.1c0.5-0.1,0.9-0.1,1-0.1c0,0.4-0.7,1-2.1,1.9c-1.4,0.9-3.2,1.9-5.3,2.9c-2.2,1.1-4.6,2.3-7.3,3.5
	c-2.7,1.2-5.3,2.3-7.8,3.3c-2.6,1-4.9,1.8-7,2.4c-2.1,0.6-3.7,0.9-4.8,0.9c-1.3,0-2.4-0.3-3.3-0.9c-1-0.6-1.5-1.8-1.5-3.5
	C127.5,42,127.7,41.1,128.1,40.3z M139,13.5c-1.3,1.4-2.3,2.9-3,4.4c2.8-1.9,5.2-4.3,7.3-7.1C141.7,11.2,140.3,12.1,139,13.5z"/>
<path class="st0" d="M148.2,48c0.1-0.2,0.2-0.4,0.5-0.5c1.9-1.1,3.9-2.3,6-3.5c2.2-1.2,4.4-2.4,6.6-3.6c2.2-1.2,4.4-2.3,6.7-3.5
	c2.2-1.1,4.4-2.1,6.5-3c0.5-0.8,1.2-1.4,2.3-1.9c1.1-0.4,2-0.6,2.7-0.6c0.2,0,0.5,0.1,0.9,0.3c0.4,0.1,0.8,0.3,1.2,0.6
	c0.4,0.3,0.8,0.4,1.2,0.7c0.4,0.3,0.5,0.4,0.6,0.4c0.3,0,0.8,0,1.4,0c0.8,0,1.5,0,2.3,0.1c0.8,0.1,1.5,0.1,2.2,0.1
	c0.8,0,1.2,0,1.5,0c2.5,0,4.9-0.1,7-0.1c2.2-0.1,4.5-0.5,7-1.4l0.5,0.7c-0.1,0.5-0.7,0.9-1.6,1.3c-1,0.3-2.2,0.6-3.6,0.9
	c-1.5,0.3-3,0.4-4.6,0.6c-1.6,0.2-3.3,0.4-4.7,0.5c-1.5,0.1-2.8,0.3-3.9,0.6s-1.9,0.4-2.2,0.7c-0.1,0-0.2,0.1-0.5,0.4
	c-0.2,0.3-0.5,0.6-0.8,1s-0.5,0.8-0.7,1.1c-0.2,0.3-0.4,0.6-0.4,0.6c-0.8,1-1.8,2.1-3,3.2c-1.3,1.1-2.6,2.2-4,3.1
	c-1.5,0.9-2.9,1.8-4.3,2.4c-1.5,0.6-2.7,0.9-3.9,0.9c-0.6,0-1.2-0.2-1.6-0.6c-0.4-0.4-0.6-1-0.6-1.8c0-0.1,0-0.3,0.1-0.5
	c0.1-0.2,0.1-0.3,0.1-0.4l2.8-6.4h-0.2h-0.3c-0.4,0.1-0.8,0.3-1.3,0.6c-0.6,0.3-1.2,0.5-1.8,0.8c-0.6,0.3-1.2,0.5-1.6,0.8
	c-0.5,0.3-0.8,0.4-0.9,0.4c-0.2,0.1-0.6,0.4-1.3,0.9c-0.7,0.4-1.5,0.9-2.4,1.4c-0.9,0.5-1.8,1.1-2.6,1.6c-0.9,0.5-1.5,0.9-2,1.3
	c-0.1,0.1-0.4,0.3-0.6,0.6s-0.6,0.6-0.9,0.9c-0.4,0.3-0.6,0.6-1,0.8c-0.4,0.3-0.6,0.3-0.8,0.3c-0.5,0-0.9-0.2-1.2-0.6
	c-0.4-0.4-0.5-0.9-0.5-1.3C148.1,48.3,148.1,48.2,148.2,48z M178.2,37.1c-1.3,0.4-2.7,0.9-4,1.6c-1.3,0.8-2.4,1.6-3.3,2.8
	c-0.9,1.1-1.4,2.4-1.4,4v0.7c0.1-0.1,0.4-0.2,0.9-0.3c0.4-0.1,0.7-0.3,0.9-0.3c0.4-0.3,0.9-0.6,1.7-1c0.8-0.4,1.6-0.9,2.6-1.6
	c0.9-0.6,1.8-1.1,2.6-1.6c0.8-0.4,1.3-0.8,1.7-1c0.8-0.5,1.2-1.1,1.5-1.6s0.5-1.3,0.5-2.2C180.8,36.5,179.6,36.7,178.2,37.1z"/>
<path class="st0" d="M183.8,43c1.8-1.3,3.6-2.5,5.6-3.6c2-1.1,3.9-2,5.9-2.8c2-0.8,3.7-1.5,5.3-2.1c0.5-0.3,1.2-0.5,2.2-0.9
	c1-0.4,2-0.7,3-1.1s1.9-0.6,2.8-0.9c0.9-0.3,1.4-0.4,1.6-0.5c0.1,0,0.4,0,0.9-0.1c0.6-0.1,1-0.1,1.2-0.1c0.2,0,0.6,0,1.2,0.1
	c0.6,0.1,0.9,0.1,1.2,0.1c0.1,0.1,0.2,0.2,0.3,0.4c0.1,0.1,0.2,0.3,0.2,0.4c0.1,0,0.1,0.1,0.1,0.4v0.1c0,0.1-0.1,0.1-0.1,0.3
	c-0.6,0.6-1.3,1.3-2.2,2.1s-1.7,1.7-2.5,2.6c-0.8,0.9-1.5,1.9-2,2.9c-0.6,1.1-0.9,2.1-0.9,3.3c1.1,0,2.3-0.2,3.6-0.6
	c1.3-0.4,2.7-0.8,4-1.3c1.3-0.5,2.7-1.1,3.9-1.7c1.3-0.6,2.4-1.1,3.4-1.6c0.2-0.1,0.6-0.3,1.1-0.6s1.1-0.6,1.7-1s1.2-0.7,1.7-1
	c0.5-0.3,0.9-0.6,1.1-0.7h1.5c0,0.8-0.1,1.4-0.3,2.1c-0.2,0.6-0.4,1.2-0.6,1.8c-0.2,0.6-0.4,1.2-0.6,1.8c-0.2,0.6-0.3,1.3-0.3,1.9
	c1.1,0,2.3-0.2,3.7-0.6c1.4-0.4,2.7-0.9,4-1.7c1.3-0.8,2.3-1.7,3.2-2.8c0.9-1.1,1.3-2.5,1.3-4.1c0-0.8-0.3-1.6-0.9-2.3
	c-0.6-0.6-0.9-1.3-0.9-2c0-0.6,0.2-1,0.5-1.1c0.4-0.1,0.7-0.2,1.1-0.2c0.8,0,1.5,0.2,2.2,0.6c0.6,0.4,1.5,0.6,2.4,0.6
	c0.4,0,1.1,0,2.1,0.1s2,0.1,3.2,0.1c1.2,0,2.3,0,3.3-0.1c1-0.1,1.7-0.1,2.1-0.1l1.1,0.7c-2,0.8-4.1,1.4-6.3,1.8
	c-2.2,0.4-4.4,0.6-6.5,0.8c-0.1,0-0.2,0.1-0.3,0.3c-0.1,0.1-0.2,0.3-0.3,0.4c-0.8,1.6-1.8,3.2-2.9,4.7c-1.1,1.6-2.3,2.9-3.7,4.2
	s-2.8,2.3-4.4,3.1c-1.6,0.8-3.3,1.1-5,1.1c-1.1,0-1.8-0.3-2.2-0.9c-0.4-0.6-0.5-1.5-0.5-2.6c0-0.8,0.1-1.5,0.3-2.1
	c0.2-0.6,0.3-1.3,0.3-2c-0.1,0-0.2-0.1-0.2-0.1c-0.1-0.1-0.2-0.1-0.2-0.1c-0.8,0.4-2.1,1.2-3.9,2.1s-3.6,1.9-5.6,2.8
	s-3.8,1.8-5.6,2.4c-1.8,0.8-3,1.1-3.7,1.1c-0.3,0-0.6-0.1-0.9-0.3c-0.4-0.1-0.6-0.4-0.9-0.6c-0.3-0.3-0.5-0.5-0.8-0.8
	c-0.2-0.3-0.3-0.6-0.2-1.1c0.1-0.8,0.5-1.6,1-2.6c0.5-0.9,1.1-1.9,1.8-2.8c0.6-0.9,1.3-1.8,1.9-2.5c0.6-0.8,1.1-1.3,1.5-1.8h-1.7
	c-0.1,0-0.7,0.3-1.9,0.8c-1.2,0.5-2.6,1.1-4.3,1.8c-1.6,0.7-3.3,1.4-5,2.1c-1.6,0.8-3,1.3-4.1,1.8c-0.8,0.4-1.7,0.9-2.7,1.4
	c-1,0.6-2,1.2-3,1.9c-1.1,0.7-2,1.4-3,2c-0.9,0.6-1.8,1.3-2.6,1.8l-1.1-0.7C180.7,45.8,182,44.3,183.8,43z"/>
<path d="M62.8,122.7v12.7H43.2v-13.3c-5.1-1.5-10.3-4.1-14.4-7.8c-7.9-6.9-12.1-16.9-12.1-28.3h21.5c0,5.2,1.6,9.2,4.8,12
	c2.9,2.5,7.1,4,11.6,4c1.6,0,15.6,0.5,15.6-14.2c0-5-2.2-5.9-16.8-9.7c-13.4-3.5-33.6-8.8-34.8-31.3l-0.2-0.6
	c0-18.2,11.4-29.8,24.8-33.8V2.8h19.5V12c6.2,1.4,11.1,4.2,15.3,8.3C83,25,89,33.5,89,48H67.5c0-5.1-1.4-9.5-4.2-12.2
	c-2.3-2.2-5.5-3.4-9.1-3.4c-4.8,0-13.8,2.9-14,13.5c0.4,5.4,3.9,7.4,18.7,11.3c13.1,3.4,32.8,8.6,32.8,30.6
	C91.7,107.7,78.2,119.5,62.8,122.7z"/>
<path id="XMLID_54_" class="st1" d="M138,53.4v10.8h-16.7v56.7H110V64.2H93.7V53.4H138z"/>
<path id="XMLID_56_" class="st1" d="M171.2,121.6c-3.6,0-7.1-0.6-10.2-1.8c-3.2-1.2-5.9-2.9-8.3-5c-2.3-2.2-4.2-4.8-5.6-7.8
	c-1.4-3.1-2-6.4-2-10.1V53.4h11.3v43.1c0,2,0.4,3.8,1.2,5.6c0.8,1.7,1.8,3.2,3.1,4.5c1.3,1.3,2.9,2.3,4.7,3.1
	c1.8,0.8,3.7,1.2,5.8,1.2c2.1,0,4.1-0.4,5.9-1.2c1.8-0.8,3.4-1.8,4.8-3.1c1.4-1.3,2.4-2.8,3.2-4.5c0.8-1.7,1.2-3.6,1.2-5.6V53.4
	h11.3v43.4c0,3.7-0.7,7.1-2,10.1c-1.4,3.1-3.2,5.7-5.6,7.8c-2.4,2.2-5.2,3.8-8.4,5C178.2,121,174.8,121.6,171.2,121.6z"/>
<path id="XMLID_58_" class="st1" d="M208.4,120.9V53.4h41v10.5h-29.7v18.9h25.8v10.6h-25.8v27.6H208.4z"/>
<path id="XMLID_60_" class="st1" d="M256.2,120.9V53.4h41v10.5h-29.7v18.9h25.8v10.6h-25.8v27.6H256.2z"/>
<path id="XMLID_62_" class="st1" d="M369.6,115.9c-0.7,0.5-1.8,1.1-3.1,1.8c-1.3,0.7-2.9,1.3-4.7,1.9c-1.8,0.6-3.9,1.1-6.2,1.5
	c-2.3,0.4-4.7,0.6-7.3,0.6c-5.3,0-10.1-0.9-14.3-2.7c-4.2-1.8-7.7-4.3-10.6-7.4c-2.9-3.1-5.1-6.7-6.7-10.8
	c-1.5-4.1-2.3-8.5-2.3-13.1c0-5.1,0.9-9.7,2.8-14c1.9-4.3,4.4-8,7.5-11.1c3.2-3.1,6.9-5.5,11.1-7.3c4.2-1.7,8.7-2.6,13.6-2.6
	c1.9,0,3.7,0.1,5.6,0.4c1.9,0.3,3.7,0.6,5.3,1.1c1.7,0.4,3.1,0.9,4.4,1.5c1.3,0.6,2.2,1.1,2.7,1.8c-0.6,0.9-1,1.6-1.3,2.1
	c-0.3,0.6-0.6,1.1-1,1.7c-0.3,0.6-0.7,1.2-1.1,2c-0.4,0.7-1,1.8-1.7,3.1c-0.7-0.5-1.6-0.9-2.7-1.3c-1-0.4-2.1-0.7-3.3-0.9
	c-1.1-0.2-2.3-0.4-3.5-0.5c-1.2-0.1-2.2-0.2-3.1-0.2c-3.5,0-6.7,0.6-9.6,1.9c-2.9,1.3-5.5,3-7.6,5.1c-2.1,2.1-3.8,4.6-5,7.5
	c-1.2,2.8-1.8,5.8-1.8,8.8c0,3,0.6,5.8,1.7,8.7c1.1,2.8,2.7,5.3,4.8,7.5c2.1,2.2,4.5,3.9,7.4,5.2c2.8,1.3,6,2,9.4,2
	c2,0,3.9-0.2,5.7-0.6s3.5-0.8,4.9-1.3c1.4-0.5,2.6-1,3.5-1.5c0.9-0.5,1.4-0.8,1.4-1L369.6,115.9z"/>
<path id="XMLID_64_" class="st1" d="M374,120.9V53.4h11.4v28.1h32.2V53.4h11.5c0,0.7,0,2.8,0,6.2c0,3.4,0,7.5,0,12.3s0,9.9,0,15.3
	c0,5.4,0,10.5,0,15.3c0,4.8,0,8.9,0,12.3c0,3.4,0,5.5,0,6.2h-11.4V92.4h-32.2v28.5H374z"/>
<path id="XMLID_66_" class="st1" d="M440.7,120.9V53.4h44.8v10.3H452v18.1h29.8v10.6H452v18h34.8v10.6H440.7z"/>
<path id="XMLID_68_" class="st1" d="M535.5,120.9c-0.2-0.4-0.5-1.2-1-2.3s-1-2.5-1.7-4.1c-0.7-1.6-1.4-3.4-2.2-5.3
	c-0.8-1.9-1.6-4-2.5-6.1h-23.2l-7.4,17.8h-11.2c0.2-0.6,0.8-1.9,1.8-4.1c0.9-2.2,2.1-4.9,3.5-8.1c1.4-3.2,2.9-6.9,4.6-10.8
	c1.7-4,3.4-8,5.2-12.2c1.8-4.1,3.5-8.2,5.2-12.2c1.7-4,3.2-7.6,4.6-10.8s2.5-6,3.5-8.1c0.9-2.2,1.5-3.6,1.8-4.1
	c0.2,0.6,0.8,1.9,1.8,4.1c1,2.2,2.1,4.9,3.5,8.1s2.9,6.9,4.6,10.8c1.7,4,3.4,8,5.2,12.2c1.8,4.1,3.5,8.2,5.2,12.2
	c1.7,4,3.2,7.6,4.6,10.8c1.4,3.2,2.5,6,3.5,8.1c0.9,2.2,1.5,3.6,1.8,4.1H535.5z M508.7,93.6h15.4l-6.7-16.1
	c-0.1-0.1-0.2-0.5-0.5-1.2c-0.2-0.8-0.4-1.5-0.6-2.1c-0.1,0.6-0.3,1.3-0.6,2.1c-0.2,0.8-0.4,1.2-0.4,1.2L508.7,93.6z"/>
<path id="XMLID_71_" class="st1" d="M550.5,120.9V53.4h19.1c3.7,0,7.1,0.5,10.1,1.5c3.1,1,5.6,2.4,7.8,4.3c2.1,1.9,3.8,4.1,5,6.9
	c1.2,2.7,1.8,5.8,1.8,9.2c0,2.7-0.4,5.4-1.2,8.1c-0.8,2.7-2.1,5.1-3.9,7.2c-1.8,2.1-4.2,3.9-7.1,5.2c-2.9,1.3-6.5,2-10.7,2h-9.4
	v23.2H550.5z M561.8,87h9.1c2.3,0,4.3-0.4,5.8-1.2c1.5-0.8,2.8-1.8,3.7-3c0.9-1.2,1.6-2.5,1.9-3.8c0.4-1.3,0.6-2.5,0.6-3.6
	c0-1-0.2-2.1-0.5-3.5c-0.3-1.3-1-2.6-1.9-3.8c-0.9-1.2-2.1-2.2-3.7-3c-1.5-0.8-3.5-1.2-5.9-1.2h-9.2V87z"/>
<path class="st0" d="M279.2,67.3c1-1.3,2-2.4,3-3.3c2.8-2.4,5.7-4.6,8.8-6.6c3.1-1.9,6.2-3.6,9.5-4.9c0.2-0.1,0.6-0.3,1.2-0.5
	c0.7-0.3,1.4-0.6,2.2-0.9s1.6-0.6,2.3-0.9c0.7-0.3,1.2-0.5,1.6-0.6c0.6-0.3,1.1-0.4,1.7-0.6c0.6-0.2,1-0.6,1.4-1.3
	c0.2-0.4,0.4-1,0.8-1.7c0.3-0.8,0.6-1.4,0.9-2.1s0.5-1.3,0.7-1.8c0.2-0.5,0.3-0.8,0.3-0.9v-0.4c-1.5,0.8-3,1.6-4.5,2.3
	c-1.5,0.8-3.1,1.2-4.7,1.2c-0.5,0-0.9-0.1-1.2-0.1c-0.3-0.1-0.6-0.3-0.8-0.4c-0.2-0.2-0.4-0.4-0.6-0.8c-0.2-0.3-0.4-0.7-0.6-1.2H301
	c-0.6,0-1.2,0.3-2,0.9c-0.7,0.6-1.5,1.2-2.1,1.9s-1.3,1.3-1.8,1.9s-0.9,0.9-1,0.9c-0.1,0-0.1,0-0.2-0.1c-0.1-0.1-0.2-0.2-0.4-0.4
	c-0.2-0.3-0.3-0.4-0.4-0.5c-0.1,0-0.1-0.1-0.1-0.3c0-0.3,0.1-0.5,0.3-0.8s0.5-0.6,0.8-0.9c0.3-0.3,0.6-0.6,0.9-0.9
	c0.3-0.3,0.6-0.4,0.8-0.6c0.5-0.3,1.1-0.7,2-1.2c0.8-0.5,1.7-1,2.5-1.6c0.8-0.6,1.6-1,2.3-1.4c0.7-0.4,1.1-0.7,1.2-0.8
	c0.4-0.3,1.2-0.6,2.3-1.2c1.1-0.6,2.3-1.1,3.5-1.7c1.2-0.6,2.4-1.1,3.5-1.7c1.1-0.5,1.9-0.9,2.3-1h0.4c0.3,0,0.6,0.1,0.8,0.1
	c0.3,0.1,0.4,0.4,0.4,0.9c0,0.3,0,0.4-0.1,0.6c0,0.2-0.2,0.3-0.4,0.4c-2.1,0.8-4.2,1.8-6.3,3c-2.1,1.3-4,2.8-5.7,4.5h1
	c1,0,2.1-0.3,3.2-0.7s2.2-1,3.2-1.7c1-0.7,2-1.5,2.9-2.4c0.9-0.9,1.7-1.8,2.5-2.6c0.1-0.1,0.1-0.1,0.2-0.1h0.2
	c0.4,0,0.6,0.2,0.7,0.6s0.2,0.8,0.2,1.1c0,0.9-0.2,1.8-0.5,2.7c-0.4,0.9-0.7,1.8-1.2,2.8c-0.5,0.9-0.9,1.8-1.4,2.7
	c-0.5,0.9-0.9,1.8-1.1,2.6c0.1,0.1,0.3,0.1,0.6,0.1c0.3,0,0.5,0,0.6,0c0.6,0,1.1-0.1,1.7-0.3c0.6-0.2,1.1-0.3,1.7-0.3v0.5
	c-1,0.3-2.1,0.7-3.2,1.3c-1.1,0.5-2.1,1.1-3,1.8c-1.5,3-3.1,6.2-4.9,9.6c-1.8,3.4-3.8,6.6-6,9.5c-2.2,2.9-4.7,5.4-7.3,7.3
	c-2.7,1.9-5.6,2.9-8.7,2.9c-0.7,0-1.6-0.1-2.6-0.3c-1-0.2-1.9-0.6-2.8-1.1c-0.9-0.5-1.6-1.3-2.2-2.1c-0.6-0.9-0.8-2.1-0.7-3.4
	C277.7,70.1,278.3,68.6,279.2,67.3z M280.4,74.3c0.4,0.6,0.9,1.1,1.5,1.4c0.6,0.3,1.2,0.5,2,0.6c0.7,0.1,1.4,0.1,2,0.1
	c1.5,0,3-0.4,4.5-1.3c1.6-0.8,3.1-1.9,4.6-3.3c1.5-1.4,3-2.9,4.4-4.7c1.5-1.8,2.8-3.5,4-5.4c1.2-1.9,2.3-3.7,3.3-5.5
	c1-1.8,1.7-3.4,2.3-4.8c0-0.1,0-0.1,0.1-0.3c0-0.1,0.1-0.2,0.1-0.3h-1.2c-0.1,0-0.4,0.1-1,0.4c-0.7,0.3-1.5,0.7-2.3,1.1
	c-0.9,0.4-1.8,0.9-2.8,1.3c-1,0.4-1.8,0.8-2.3,1.1c-0.2,0.1-0.5,0.3-1,0.5c-0.5,0.2-1,0.4-1.6,0.8c-0.6,0.3-1,0.6-1.5,1.1
	c-0.4,0.4-0.7,0.8-0.7,1.3l-0.4-0.5c-0.1,0-0.2,0.1-0.5,0.3c-0.3,0.2-0.7,0.4-1.1,0.7c-0.4,0.3-0.8,0.4-1,0.6
	c-0.7,0.4-1.8,1.1-3.1,1.9c-1.3,0.9-2.6,1.9-3.9,3c-1.3,1.1-2.4,2.3-3.3,3.6c-0.9,1.3-1.4,2.6-1.4,3.8
	C279.8,72.8,280,73.6,280.4,74.3z M284.5,74.4c0,0.4-0.1,0.5-0.3,0.5c-0.2,0-0.4-0.2-0.4-0.5c0-0.3,0.1-0.4,0.4-0.4
	C284.3,73.9,284.5,74.1,284.5,74.4z"/>
<path class="st0" d="M317.2,44.6c-0.1,0-0.4,0.1-0.8,0.3c-0.4,0.2-0.7,0.3-0.8,0.2c-0.1,0-0.3-0.1-0.5-0.4s-0.3-0.4-0.3-0.6
	c0.2-0.4,0.4-0.7,0.7-0.9c0.3-0.2,0.6-0.4,0.9-0.5c0.3-0.1,0.6-0.3,1-0.4c0.3-0.1,0.6-0.4,0.9-0.7c1-1.1,1.9-2.1,2.9-3.1
	c1-1,2-1.9,3.1-2.8s2.2-1.4,3.4-1.9c1.2-0.4,2.5-0.7,3.9-0.7c0.6,0,0.9,0.1,1.1,0.3c0.2,0.2,0.3,0.6,0.3,1.3c0,0.5-0.2,1.1-0.7,1.6
	c-0.5,0.5-1,0.9-1.6,1.3c-0.6,0.4-1.1,0.7-1.7,1c-0.6,0.3-1,0.5-1.2,0.6c-0.2,0.1-0.5,0.3-1.1,0.7c-0.6,0.3-1.4,0.7-2.1,1.1
	c-0.8,0.4-1.5,0.8-2.1,1.1c-0.6,0.4-1,0.6-1.1,0.6c-0.4,0.2-0.6,0.3-0.7,0.4c-0.1,0.1-0.2,0.3-0.2,0.7c0,0.4,0.1,0.6,0.4,0.8
	s0.6,0.3,0.9,0.3c0.4,0,0.7,0,1,0s0.6-0.1,0.7-0.1c2.7,0,5.3-0.4,8-1.2c2.7-0.8,5.3-1.6,7.8-2.3c0.1,0,0.3-0.1,0.6-0.3
	c0.3-0.1,0.5-0.3,0.6-0.3c0.1,0,0.1,0.1,0.2,0.2c0.1,0.1,0.2,0.2,0.2,0.3c-1,1-2.3,1.9-3.9,2.6c-1.7,0.8-3.4,1.4-5.3,1.9
	c-1.9,0.5-3.6,0.9-5.4,1.1c-1.7,0.3-3.1,0.4-4.2,0.4c-0.5,0-0.9-0.1-1.4-0.4c-0.5-0.3-0.9-0.6-1.3-0.8c-0.4-0.3-0.8-0.6-1.1-0.8
	c-0.3-0.3-0.6-0.4-0.8-0.4L317.2,44.6L317.2,44.6z M328.6,35.4c-0.7,0.3-1.4,0.6-2.1,0.9c-0.7,0.4-1.4,0.9-2,1.4
	c-0.6,0.6-1.1,1.2-1.5,1.8h0.2c0.5,0,1-0.2,1.8-0.5c0.7-0.4,1.5-0.8,2.2-1.3c0.8-0.4,1.6-0.9,2.3-1.5c0.7-0.5,1.3-0.9,1.7-1.3
	c-0.1,0-0.2,0-0.4-0.1c-0.2,0-0.2-0.1-0.3-0.1C329.9,35.1,329.3,35.2,328.6,35.4z"/>
<path class="st0" d="M331.5,46l2.8-3.5c0.3,0.1,0.7,0.1,1-0.2c0.4-0.3,0.7-0.5,1-0.8c0.3-0.3,0.6-0.6,0.9-0.9
	c0.3-0.3,0.6-0.3,0.9-0.1c0.4-0.3,1.1-0.8,2.1-1.6c1-0.8,2-1.6,3.2-2.4s2.2-1.6,3.2-2.4c1-0.8,1.7-1.3,2-1.6
	c0.5-0.4,1.1-0.8,1.7-1.3c0.6-0.4,1-1,1-1.8c-1,0-2.2,0.3-3.3,0.8c-1.1,0.5-2.2,0.8-3.2,0.8c-0.2,0-0.4-0.1-0.7-0.4
	s-0.5-0.6-0.5-0.8c0-0.4,0.1-0.7,0.4-0.9s0.5-0.5,0.9-0.7c0.3-0.2,0.6-0.4,0.9-0.5c0.3-0.1,0.5-0.2,0.6-0.2c1-0.3,2.2-0.4,3.6-0.5
	c1.4-0.1,2.7,0,3.7,0.1c0.2-0.2,0.4-0.4,0.7-0.8c0.3-0.4,0.7-0.8,1-1.2c0.4-0.4,0.7-0.8,1-1.2c0.4-0.4,0.6-0.7,0.7-0.8
	c0.4-0.4,0.8-0.9,1.5-1.3c0.6-0.4,1.1-0.7,1.7-0.7c0.2,0,0.4,0.1,0.5,0.2c0.2,0.1,0.3,0.3,0.3,0.6s-0.1,0.7-0.4,1.1
	c-0.3,0.5-0.5,0.9-0.9,1.4c-0.3,0.4-0.6,0.8-0.9,1.1c-0.3,0.3-0.5,0.5-0.5,0.6v0.5c0.2,0,0.6,0,1.1,0.1c0.6,0.1,1.1,0.1,1.8,0.2
	c0.6,0.1,1.2,0.1,1.8,0.2c0.6,0.1,0.9,0.1,1.1,0.1s0.5,0,0.7-0.1c0.2,0,0.4,0.1,0.5,0.5c-0.8,0.4-1.7,0.7-2.5,0.8
	c-0.8,0.1-1.7,0.3-2.5,0.3c-0.8,0.1-1.7,0.2-2.6,0.3c-0.9,0.1-1.7,0.3-2.5,0.7c-0.2,0.3-0.6,0.8-1.1,1.4c-0.6,0.7-1.1,1.4-1.8,2.2
	c-0.6,0.8-1.2,1.6-1.8,2.3c-0.6,0.7-0.9,1.2-1.1,1.5c-0.2,0.3-0.5,0.7-0.9,1.1c-0.4,0.4-0.8,0.9-1.1,1.4c-0.4,0.5-0.7,1.1-1,1.7
	c-0.3,0.6-0.4,1.2-0.4,1.8h2.6l17.1-5.5h1.5c-0.1,0.1-0.2,0.3-0.4,0.5c-0.2,0.3-0.3,0.4-0.4,0.4c-0.2,0.1-0.4,0.3-0.7,0.5
	c-0.3,0.2-0.7,0.4-1,0.6c-0.4,0.2-0.7,0.4-1,0.6s-0.6,0.3-0.7,0.4c-0.4,0.2-1.1,0.5-2.2,0.9c-1.1,0.4-2.2,0.9-3.5,1.3
	c-1.2,0.5-2.4,0.9-3.5,1.4c-1.1,0.4-1.9,0.8-2.4,0.9c-0.6,0.2-1.1,0.3-1.6,0.5c-0.4,0.1-0.8,0.3-1.2,0.4c-0.4,0.1-0.8,0.1-1.1,0.2
	c-0.4,0-0.8,0.1-1.3,0.1c-0.9,0-1.6-0.2-2.1-0.6s-0.8-1.2-0.8-2.5v-0.7c0.1-0.2,0.2-0.4,0.3-0.8c0.2-0.4,0.3-0.8,0.5-1.3
	c0.2-0.4,0.4-0.8,0.5-1.2c0.2-0.4,0.3-0.6,0.4-0.8l-7,5h-0.4c-0.6,0.5-1,0.9-1.4,1.2c-0.4,0.3-0.8,0.6-1.1,0.9
	c-0.4,0.3-0.7,0.6-0.9,0.8c-0.1,0-0.1,0.1-0.2,0.3c-0.1,0.1-0.2,0.3-0.2,0.3c-0.1,0.1-0.2,0.1-0.4,0.3c-0.2,0.1-0.3,0.2-0.4,0.3
	h-0.2c-0.3,0-0.5-0.1-0.7-0.3c-0.2-0.1-0.3-0.4-0.3-0.8C331.4,46.4,331.4,46.3,331.5,46z"/>
</svg>
